<svg width="109" height="99" viewBox="0 0 109 99" fill="none" xmlns="http://www.w3.org/2000/svg">
<path d="M1.59473 13.6776H107.405V78.7062H1.59473V13.6776Z" fill="#F9F6F9"/>
<path d="M102.732 13.6776H107.405V78.7062H102.732V13.6776Z" fill="#DDDAEC"/>
<path d="M107.406 13.6777H1.59473V5.89027C1.59473 3.79193 3.29589 2.09076 5.39424 2.09076H103.606C105.704 2.09076 107.405 3.79193 107.405 5.89027V13.6777H107.406Z" fill="#FFE07D"/>
<path d="M103.606 2.09076H98.9326C101.031 2.09076 102.732 3.79193 102.732 5.89027V13.6777H107.405V5.89027C107.406 3.79193 105.704 2.09076 103.606 2.09076Z" fill="#FFD064"/>
<path d="M102.838 97.3759H6.16201C3.6397 97.3759 1.59473 95.3312 1.59473 92.8087V78.7063H107.405V92.8087C107.406 95.3312 105.361 97.3759 102.838 97.3759Z" fill="#95D6A4"/>
<path d="M102.903 78.7063V92.8027C102.903 95.3284 100.86 97.3759 98.3416 97.3759H102.844C105.364 97.3759 107.406 95.3284 107.406 92.8027V78.7063H102.903Z" fill="#78C2A4"/>
<path d="M54.5001 56.2472C64.0522 56.2472 71.7956 48.5038 71.7956 38.9517C71.7956 29.3997 64.0522 21.6562 54.5001 21.6562C44.9481 21.6562 37.2046 29.3997 37.2046 38.9517C37.2046 48.5038 44.9481 56.2472 54.5001 56.2472Z" fill="#FFE07D"/>
<path d="M54.5001 21.6562C53.5554 21.6562 52.6293 21.7349 51.7258 21.8805C59.9585 23.2083 66.2469 30.3445 66.2469 38.9517C66.2469 47.559 59.9585 54.6949 51.7258 56.0227C52.6295 56.1686 53.5554 56.247 54.5001 56.247C64.0522 56.247 71.7956 48.5037 71.7956 38.9515C71.7956 29.3996 64.0522 21.6562 54.5001 21.6562Z" fill="#FFD064"/>
<path d="M54.5002 49.9829C58.964 49.9829 62.5826 46.3643 62.5826 41.9003H46.4177C46.4177 46.3643 50.0365 49.9829 54.5002 49.9829Z" fill="#DD636E"/>
<path d="M37.1894 65.3599H71.811C72.6919 65.3599 73.4057 64.6461 73.4057 63.7653C73.4057 62.8844 72.6919 62.1706 71.811 62.1706H37.1894C36.3085 62.1706 35.5947 62.8844 35.5947 63.7653C35.5947 64.6461 36.3087 65.3599 37.1894 65.3599Z" fill="black"/>
<path d="M83.1678 69.3193H25.8324C24.9516 69.3193 24.2378 70.0331 24.2378 70.914C24.2378 71.7948 24.9516 72.5086 25.8324 72.5086H83.1678C84.0487 72.5086 84.7625 71.7948 84.7625 70.914C84.7625 70.0331 84.0487 69.3193 83.1678 69.3193Z" fill="black"/>
<path d="M9.99137 6.28952C9.11049 6.28952 8.39673 7.00328 8.39673 7.88417C8.39673 8.76505 9.11049 9.47881 9.99137 9.47881H12.2513C13.1322 9.47881 13.846 8.76505 13.846 7.88417C13.846 7.00328 13.1322 6.28952 12.2513 6.28952H9.99137Z" fill="black"/>
<path d="M18.934 6.28952C18.0531 6.28952 17.3394 7.00328 17.3394 7.88417C17.3394 8.76505 18.0531 9.47881 18.934 9.47881H21.1939C22.0748 9.47881 22.7886 8.76505 22.7886 7.88417C22.7886 7.00328 22.0748 6.28952 21.1939 6.28952H18.934Z" fill="black"/>
<path d="M27.8764 6.28952C26.9955 6.28952 26.2817 7.00328 26.2817 7.88417C26.2817 8.76505 26.9955 9.47881 27.8764 9.47881H30.1363C31.0172 9.47881 31.731 8.76505 31.731 7.88417C31.731 7.00328 31.0172 6.28952 30.1363 6.28952H27.8764Z" fill="black"/>
<path d="M103.606 0.496094H80.9406C80.0597 0.496094 79.346 1.20986 79.346 2.09074C79.346 2.97162 80.0597 3.68539 80.9406 3.68539H103.606C104.822 3.68539 105.811 4.67449 105.811 5.89025V12.083H3.18929V5.89046C3.18929 4.67471 4.1784 3.6856 5.39416 3.6856H74.5565C75.4374 3.6856 76.1511 2.97183 76.1511 2.09095C76.1511 1.21007 75.4374 0.496306 74.5565 0.496306H5.39416C2.41982 0.496094 0 2.91592 0 5.89046V92.8029C0 96.2038 2.7615 98.9708 6.15597 98.9708H63.3429C64.2238 98.9708 64.9376 98.257 64.9376 97.3762C64.9376 96.4953 64.2238 95.7815 63.3429 95.7815H6.15597C4.52029 95.7815 3.18929 94.4454 3.18929 92.8029V80.3011H105.811V92.8029C105.811 94.4454 104.48 95.7815 102.844 95.7815H69.7103C68.8294 95.7815 68.1156 96.4953 68.1156 97.3762C68.1156 98.257 68.8294 98.9708 69.7103 98.9708H102.844C106.238 98.9708 109 96.2038 109 92.8029V5.89046C109 2.91592 106.58 0.496094 103.606 0.496094ZM3.18929 77.1116V15.2725H105.811V77.1118H3.18929V77.1116Z" fill="black"/>
<path d="M58.4195 83.675L53.0506 89.0438L50.6993 86.7739C50.0659 86.1622 49.0562 86.18 48.4447 86.8136C47.8332 87.4472 47.8506 88.4568 48.4844 89.0683L51.9629 92.4266C52.272 92.7251 52.6713 92.8739 53.0704 92.8739C53.4789 92.8739 53.8869 92.7181 54.1982 92.4068L60.675 85.9298C61.2977 85.307 61.2977 84.2975 60.675 83.6747C60.0518 83.0524 59.0423 83.0522 58.4195 83.675Z" fill="black"/>
<path d="M50.4744 34.3003V32.2145C50.4744 31.3336 49.7607 30.6198 48.8798 30.6198C47.9989 30.6198 47.2852 31.3336 47.2852 32.2145V34.3003C47.2852 35.1811 47.9989 35.8949 48.8798 35.8949C49.7607 35.8949 50.4744 35.1809 50.4744 34.3003Z" fill="black"/>
<path d="M61.7149 34.3003V32.2145C61.7149 31.3336 61.0012 30.6198 60.1203 30.6198C59.2394 30.6198 58.5256 31.3336 58.5256 32.2145V34.3003C58.5256 35.1811 59.2394 35.8949 60.1203 35.8949C61.0012 35.8949 61.7149 35.1809 61.7149 34.3003Z" fill="black"/>
<path d="M44.823 41.9003C44.823 47.2364 49.1641 51.5777 54.5002 51.5777C59.8363 51.5777 64.1773 47.2364 64.1773 41.9003C64.1773 41.0194 63.4636 40.3057 62.5827 40.3057H46.4179C45.537 40.3057 44.823 41.0194 44.823 41.9003ZM60.7897 43.495C60.0774 46.3041 57.5274 48.3882 54.5002 48.3882C51.4729 48.3882 48.9232 46.3039 48.2107 43.4948H60.7897V43.495Z" fill="black"/>
<path d="M40.8084 49.632C41.5492 49.1558 41.7637 48.169 41.2875 47.4284C39.6599 44.8968 38.7994 41.9656 38.7994 38.9517C38.7994 30.2943 45.8428 23.2508 54.5003 23.2508C63.1577 23.2508 70.2012 30.2943 70.2012 38.9517C70.2012 47.6092 63.1577 54.6526 54.5003 54.6526C51.1581 54.6526 47.9658 53.6135 45.2677 51.6481C44.5565 51.1293 43.5585 51.2858 43.0399 51.9981C42.5213 52.7099 42.6778 53.7073 43.3899 54.2259C46.6368 56.5917 50.4788 57.8421 54.5003 57.8421C64.9163 57.8421 73.3904 49.3682 73.3904 38.9519C73.3904 28.5357 64.9165 20.0618 54.5003 20.0618C44.0841 20.0618 35.6101 28.5357 35.6101 38.9519C35.6101 42.5788 36.6456 46.1062 38.6049 49.1532C39.0811 49.8938 40.0675 50.1081 40.8084 49.632Z" fill="black"/>
</svg>
